<svg aria-hidden="true" style="position:absolute;width:0;height:0;overflow:hidden" xmlns="http://www.w3.org/2000/svg">
  <defs>
    <symbol id="burger" viewBox="0 0 32 32">
      <path d="M4.666 6.667c-0.354 0-0.693 0.14-0.943 0.391s-0.391 0.589-0.391 0.943c0 0.354 0.14 0.693 0.391 0.943s0.589 0.391 0.943 0.391h22.667c0.354 0 0.693-0.14 0.943-0.391s0.391-0.589 0.391-0.943-0.14-0.693-0.391-0.943c-0.25-0.25-0.589-0.391-0.943-0.391h-22.667zM3.333 16c0-0.354 0.14-0.693 0.391-0.943s0.589-0.391 0.943-0.391h22.667c0.354 0 0.693 0.14 0.943 0.391s0.391 0.589 0.391 0.943-0.14 0.693-0.391 0.943c-0.25 0.25-0.589 0.391-0.943 0.391h-22.667c-0.354 0-0.693-0.14-0.943-0.391s-0.391-0.589-0.391-0.943zM3.333 24.001c0-0.354 0.14-0.693 0.391-0.943s0.589-0.391 0.943-0.391h22.667c0.354 0 0.693 0.14 0.943 0.391s0.391 0.589 0.391 0.943c0 0.354-0.14 0.693-0.391 0.943s-0.589 0.39-0.943 0.39h-22.667c-0.354 0-0.693-0.14-0.943-0.39s-0.391-0.589-0.391-0.943z"></path>
    </symbol>
    <symbol id="arrow" viewBox="0 0 32 32">
      <path fill="none" stroke-linejoin="round" stroke-linecap="round" stroke-miterlimit="4" stroke-width="2.6667" stroke="#000" d="M26 16h-20M13.5 24l-7.5-8 7.5-8"></path>
    </symbol>
    <symbol id="atars" viewBox="0 0 32 32">
      <path fill="none" stroke-linejoin="round" stroke-linecap="butt" stroke-miterlimit="4" stroke-width="3.2"  d="M11.197 12.112l3.202-10.512 3.203 10.514 9.597 3.509-9.523 3.782-3.277 10.995-3.277-10.995-9.523-3.782 9.598-3.51z"></path>
      <path stroke-linejoin="miter" stroke-linecap="butt" stroke-miterlimit="4" stroke-width="1.6" d="M27.337 21.718c-0.004-0.033-0.020-0.064-0.045-0.085s-0.057-0.034-0.091-0.033c-0.033-0.001-0.066 0.011-0.091 0.033s-0.041 0.052-0.045 0.085c-0.318 3.19-0.552 4.123-3.741 4.424-0.033 0.002-0.064 0.017-0.087 0.041s-0.036 0.056-0.036 0.090c0 0.069 0.053 0.125 0.123 0.131 3.144 0.296 3.418 1.434 3.741 4.677 0.008 0.067 0.066 0.118 0.136 0.118s0.128-0.051 0.136-0.118c0.323-3.243 0.595-4.381 3.741-4.677 0.033-0.002 0.064-0.017 0.087-0.042s0.036-0.056 0.036-0.090c-0-0.033-0.013-0.065-0.036-0.090s-0.054-0.039-0.087-0.041c-3.189-0.301-3.424-1.232-3.741-4.424z"></path>
      <path d="M14.4 32c-0.704 0-1.328-0.464-1.536-1.136l-3.056-10.256-8.8-3.504c-0.608-0.24-1.008-0.832-1.008-1.504s0.432-1.248 1.056-1.488l8.848-3.232 2.96-9.744c0.208-0.672 0.832-1.136 1.536-1.136s1.328 0.464 1.536 1.136l2.976 9.744 8.848 3.232c0.624 0.224 1.040 0.816 1.056 1.488s-0.4 1.264-1.008 1.504l-8.8 3.488-3.056 10.256c-0.208 0.672-0.832 1.136-1.536 1.136l-0.016 0.016zM6.096 15.68l5.616 2.24c0.448 0.176 0.8 0.56 0.944 1.024l1.744 5.856 1.744-5.856c0.144-0.464 0.48-0.848 0.944-1.024l5.616-2.24-5.664-2.064c-0.464-0.176-0.832-0.56-0.976-1.040l-1.664-5.488-1.664 5.488c-0.144 0.48-0.512 0.864-0.976 1.040l-5.664 2.064zM27.2 32c-0.48 0-0.88-0.368-0.928-0.848-0.32-3.12-0.448-3.712-3.024-3.952-0.231-0.022-0.446-0.129-0.603-0.3s-0.244-0.395-0.245-0.628c0-0.48 0.368-0.88 0.848-0.928 2.576-0.24 2.72-0.64 3.024-3.712 0.030-0.225 0.14-0.432 0.311-0.582s0.39-0.232 0.617-0.232 0.446 0.083 0.617 0.232c0.171 0.15 0.281 0.356 0.311 0.582 0.304 3.072 0.448 3.472 3.024 3.712 0.48 0.048 0.848 0.448 0.848 0.928s-0.352 0.88-0.832 0.928c-2.576 0.24-2.72 0.832-3.040 3.952-0.048 0.48-0.448 0.832-0.928 0.832v0.016z"></path>
    </symbol>
    <symbol id="brain" viewBox="0 0 32 32">
      <path d="M12 4c-1.415 0-2.771 0.562-3.771 1.562s-1.562 2.357-1.562 3.771v1.501c-1.144 0.297-2.158 0.965-2.881 1.9s-1.116 2.084-1.116 3.266c0 1.182 0.393 2.331 1.116 3.266s1.737 1.603 2.881 1.9v1.501c-0 1.083 0.33 2.141 0.946 3.032s1.489 1.574 2.502 1.957 2.119 0.448 3.171 0.187c1.051-0.261 1.998-0.836 2.715-1.649 0.717 0.813 1.664 1.388 2.715 1.649s2.157 0.196 3.171-0.187 1.886-1.066 2.502-1.957c0.616-0.891 0.946-1.949 0.946-3.032v-1.501c1.144-0.297 2.158-0.965 2.881-1.9s1.116-2.084 1.116-3.266-0.393-2.331-1.116-3.266c-0.723-0.935-1.737-1.603-2.881-1.9v-1.501c0-1.083-0.33-2.141-0.946-3.032s-1.489-1.574-2.502-1.957c-1.013-0.383-2.119-0.448-3.171-0.187s-1.998 0.836-2.715 1.649c-0.501-0.567-1.116-1.022-1.806-1.333s-1.438-0.472-2.194-0.472zM22.667 12c0 0.354 0.141 0.693 0.391 0.943s0.589 0.391 0.943 0.391c0.388 0 0.772 0.085 1.124 0.249s0.664 0.403 0.914 0.699 0.432 0.645 0.534 1.019c0.102 0.375 0.12 0.767 0.055 1.15s-0.214 0.746-0.435 1.066c-0.221 0.319-0.509 0.587-0.843 0.783s-0.709 0.318-1.095 0.355c-0.386 0.037-0.776-0.011-1.142-0.14-0.333-0.118-0.7-0.098-1.019 0.054s-0.565 0.426-0.682 0.759c-0.118 0.333-0.098 0.7 0.054 1.019s0.426 0.565 0.759 0.682c0.146 0.052 0.294 0.097 0.444 0.136v1.501c0 0.707-0.281 1.385-0.781 1.886s-1.178 0.781-1.886 0.781c-0.707 0-1.385-0.281-1.886-0.781s-0.781-1.178-0.781-1.886v-2.667c0-0.707 0.281-1.385 0.781-1.886s1.178-0.781 1.886-0.781c0.354 0 0.693-0.141 0.943-0.391s0.391-0.589 0.391-0.943c0-0.354-0.141-0.693-0.391-0.943s-0.589-0.391-0.943-0.391c-0.936-0-1.856 0.246-2.667 0.713v-6.047c0-0.707 0.281-1.386 0.781-1.886s1.178-0.781 1.886-0.781c0.707 0 1.385 0.281 1.886 0.781s0.781 1.178 0.781 1.886v2.667zM12 17.333c0.707 0 1.385 0.281 1.886 0.781s0.781 1.178 0.781 1.886v2.667c0 0.707-0.281 1.385-0.781 1.886s-1.178 0.781-1.886 0.781c-0.707 0-1.386-0.281-1.886-0.781s-0.781-1.178-0.781-1.886v-1.501c0.151-0.039 0.299-0.084 0.444-0.136 0.333-0.118 0.607-0.363 0.759-0.682s0.172-0.686 0.054-1.019c-0.118-0.333-0.363-0.607-0.682-0.759s-0.686-0.172-1.019-0.054c-0.366 0.129-0.756 0.177-1.142 0.14s-0.76-0.158-1.095-0.355c-0.335-0.196-0.623-0.464-0.843-0.783s-0.369-0.683-0.435-1.066c-0.066-0.383-0.047-0.775 0.055-1.15s0.284-0.723 0.534-1.019c0.25-0.297 0.562-0.536 0.914-0.699s0.735-0.249 1.124-0.249c0.354 0 0.693-0.14 0.943-0.391s0.391-0.589 0.391-0.943v-2.667c0-0.707 0.281-1.386 0.781-1.886s1.178-0.781 1.886-0.781c0.707 0 1.385 0.281 1.886 0.781s0.781 1.178 0.781 1.886v6.047c-0.811-0.468-1.731-0.714-2.667-0.713-0.354 0-0.693 0.141-0.943 0.391s-0.391 0.589-0.391 0.943c0 0.354 0.14 0.693 0.391 0.943s0.589 0.391 0.943 0.391z"></path>
    </symbol>
    <symbol id="click" viewBox="0 0 32 32">
      <path fill="none" stroke-linejoin="round" stroke-linecap="round" stroke-miterlimit="4" stroke-width="2.6667"  d="M10.667 17.333v-11.333c0-0.53 0.211-1.039 0.586-1.414s0.884-0.586 1.414-0.586c0.53 0 1.039 0.211 1.414 0.586s0.586 0.884 0.586 1.414v10M14.667 15.333v-2.667c0-0.53 0.211-1.039 0.586-1.414s0.884-0.586 1.414-0.586c0.53 0 1.039 0.211 1.414 0.586s0.586 0.884 0.586 1.414v3.333M18.667 14c0-0.53 0.211-1.039 0.586-1.414s0.884-0.586 1.414-0.586c0.53 0 1.039 0.211 1.414 0.586s0.586 0.884 0.586 1.414v2"></path>
      <path fill="none" stroke-linejoin="round" stroke-linecap="round" stroke-miterlimit="4" stroke-width="2.6667"  d="M22.667 15.333c0-0.53 0.211-1.039 0.586-1.414s0.884-0.586 1.414-0.586c0.53 0 1.039 0.211 1.414 0.586s0.586 0.884 0.586 1.414v6c0 2.122-0.843 4.157-2.343 5.657s-3.535 2.343-5.657 2.343h-2.389c-1.325 0-2.629-0.329-3.796-0.957s-2.158-1.537-2.887-2.643l-0.261-0.4c-0.416-0.638-1.876-3.184-4.381-7.637-0.255-0.454-0.324-0.99-0.19-1.493s0.458-0.935 0.905-1.203c0.476-0.285 1.033-0.403 1.584-0.335s1.063 0.317 1.456 0.709l1.96 1.96M6.667 4l-1.333-1.333M5.333 9.333h-1.333M18.667 4l1.333-1.333M20 8h1.333"></path>
    </symbol>
    <symbol id="clock" viewBox="0 0 32 32">
      <path d="M16 2.667c7.364 0 13.333 5.969 13.333 13.333s-5.969 13.333-13.333 13.333c-7.364 0-13.333-5.969-13.333-13.333s5.969-13.333 13.333-13.333zM16 5.333c-2.829 0-5.542 1.124-7.542 3.124s-3.124 4.713-3.124 7.542c0 2.829 1.124 5.542 3.124 7.543s4.713 3.124 7.542 3.124c2.829 0 5.542-1.124 7.543-3.124s3.124-4.714 3.124-7.543c0-2.829-1.124-5.542-3.124-7.542s-4.714-3.124-7.543-3.124zM16 8c0.327 0 0.642 0.12 0.886 0.337s0.4 0.516 0.438 0.84l0.009 0.156v6.115l3.609 3.609c0.239 0.24 0.378 0.562 0.388 0.901s-0.109 0.668-0.333 0.923c-0.224 0.254-0.537 0.413-0.874 0.445s-0.674-0.065-0.942-0.273l-0.125-0.111-4-4c-0.207-0.207-0.34-0.477-0.379-0.768l-0.012-0.175v-6.667c0-0.354 0.141-0.693 0.391-0.943s0.589-0.391 0.943-0.391z"></path>
    </symbol>
    <symbol id="gamepad" viewBox="0 0 32 32">
      <path fill="none" stroke-linejoin="round" stroke-linecap="butt" stroke-miterlimit="4" stroke-width="4" d="M20 8.667h-8c-5.155 0-9.333 4.179-9.333 9.333s4.179 9.333 9.333 9.333h8c5.155 0 9.333-4.179 9.333-9.333s-4.179-9.333-9.333-9.333z"></path>
      <path d="M20 16.667c1.105 0 2-0.895 2-2s-0.895-2-2-2c-1.105 0-2 0.895-2 2s0.895 2 2 2z"></path>
      <path d="M23.333 19.333c0.736 0 1.333-0.597 1.333-1.333s-0.597-1.333-1.333-1.333c-0.736 0-1.333 0.597-1.333 1.333s0.597 1.333 1.333 1.333z"></path>
      <path fill="none" stroke-linejoin="round" stroke-linecap="round" stroke-miterlimit="4" stroke-width="4" d="M8 18h6.667M16 4.667v4M11.333 14.667v6.667"></path>
    </symbol>
    <symbol id="mail" viewBox="0 0 32 32">
      <path fill="none" stroke-linejoin="round" stroke-linecap="round" stroke-miterlimit="4" stroke-width="4" d="M3.143 10.285l9.307 6.205c1.284 0.855 1.925 1.283 2.619 1.449 0.613 0.147 1.252 0.147 1.864 0 0.693-0.167 1.335-0.595 2.619-1.449l9.307-6.205M9.543 26h12.915c2.24 0 3.36 0 4.216-0.436 0.752-0.384 1.364-0.996 1.747-1.748 0.437-0.856 0.437-1.976 0.437-4.216v-7.2c0-2.24 0-3.36-0.436-4.216-0.383-0.753-0.995-1.364-1.748-1.748-0.856-0.436-1.976-0.436-4.216-0.436h-12.915c-2.24 0-3.36 0-4.216 0.436-0.752 0.384-1.364 0.996-1.747 1.748-0.437 0.856-0.437 1.976-0.437 4.216v7.2c0 2.24 0 3.36 0.436 4.216 0.384 0.753 0.995 1.365 1.748 1.748 0.856 0.436 1.976 0.436 4.216 0.436z"></path>
    </symbol>
    <symbol id="mynaui_lightning" viewBox="0 0 32 32">
      <path fill="none" stroke-linejoin="round" stroke-linecap="round" stroke-miterlimit="4" stroke-width="2.6667" d="M14.086 18.277c0.011-0.094 0.003-0.189-0.025-0.28s-0.075-0.174-0.137-0.245c-0.062-0.071-0.139-0.128-0.225-0.168s-0.179-0.060-0.274-0.061h-4.091c-0.111-0.001-0.219-0.030-0.316-0.083s-0.18-0.129-0.24-0.222c-0.061-0.093-0.098-0.199-0.108-0.309s0.007-0.221 0.050-0.323l5.209-12.171c0.049-0.122 0.134-0.228 0.243-0.302s0.238-0.114 0.37-0.115h6.024c0.471 0 0.792 0.48 0.62 0.925l-2.967 7.616c-0.041 0.102-0.056 0.212-0.045 0.321s0.049 0.214 0.11 0.305 0.143 0.166 0.24 0.218c0.096 0.052 0.204 0.080 0.314 0.081h3.829c0.549 0 0.863 0.639 0.531 1.084l-9.96 13.395c-0.083 0.111-0.255 0.040-0.24-0.096l1.088-9.572z"></path>
    </symbol>
    <symbol id="point" viewBox="0 0 32 32">
      <path fill="none" stroke-linejoin="round" stroke-linecap="round" stroke-miterlimit="4" stroke-width="2.6667" d="M12.229 19.771c-1-1-1.562-2.357-1.562-3.771s0.562-2.771 1.562-3.771c1-1 2.357-1.562 3.771-1.562s2.771 0.562 3.771 1.562c1 1 1.562 2.357 1.562 3.771s-0.562 2.771-1.562 3.771c-1 1-2.357 1.562-3.771 1.562s-2.771-0.562-3.771-1.562z"></path>
    </symbol>
    <symbol id="puzzle" viewBox="0 0 32 32">
      <path d="M29.333 18c0 2.347-1.733 4.293-4 4.613v4.053c0 0.707-0.281 1.385-0.781 1.886s-1.178 0.781-1.886 0.781h-5.067v-0.4c0-0.955-0.379-1.87-1.054-2.546s-1.591-1.054-2.546-1.054c-2 0-3.6 1.613-3.6 3.6v0.4h-5.067c-0.707 0-1.386-0.281-1.886-0.781s-0.781-1.178-0.781-1.886v-5.067h0.4c1.987 0 3.6-1.6 3.6-3.6s-1.613-3.6-3.6-3.6h-0.4v-5.067c0-0.707 0.281-1.386 0.781-1.886s1.178-0.781 1.886-0.781h4.053c0.32-2.267 2.267-4 4.613-4s4.293 1.733 4.613 4h4.053c0.707 0 1.385 0.281 1.886 0.781s0.781 1.178 0.781 1.886v4.053c2.267 0.32 4 2.267 4 4.613zM22.667 20h2c0.53 0 1.039-0.211 1.414-0.586s0.586-0.884 0.586-1.414c0-0.53-0.211-1.039-0.586-1.414s-0.884-0.586-1.414-0.586h-2v-6.667h-6.667v-2c0-0.53-0.211-1.039-0.586-1.414s-0.884-0.586-1.414-0.586c-0.53 0-1.039 0.211-1.414 0.586s-0.586 0.884-0.586 1.414v2h-6.667v2.827c2.347 0.907 4 3.173 4 5.84s-1.667 4.933-4 5.84v2.827h2.827c0.457-1.178 1.259-2.19 2.301-2.903s2.276-1.096 3.539-1.097c2.667 0 4.933 1.667 5.84 4h2.827v-6.667z"></path>
    </symbol>
    <symbol id="rocket" viewBox="0 0 32 32">
      <path d="M19.453 8.787c-1.040 1.040-1.040 2.733 0 3.773s2.733 1.040 3.773 0c1.040-1.040 1.040-2.733 0-3.773s-2.733-1.040-3.773 0zM6.667 21.333c-2.667 1.333-2.667 6.667-2.667 6.667s4 0 6.667-2.667l-4-4z"></path>
      <path d="M28.001 2.667h-4.92c-3.2 0-6.213 1.253-8.48 3.52l-3.013 3.013c-2.888-0.549-5.876 0.059-8.32 1.693-0.333 0.227-0.547 0.587-0.587 0.973s0.107 0.787 0.387 1.080l16 16c0.267 0.267 0.6 0.387 0.947 0.387s0.68-0.133 0.947-0.387c2.533-2.533 2.133-6.773 1.84-8.507l3.040-3.040c2.267-2.267 3.52-5.28 3.52-8.48v-4.92c0-0.733-0.6-1.333-1.333-1.333h-0.027zM26.668 8.92c0 2.493-0.973 4.84-2.733 6.6l-3.547 3.547c-0.333 0.333-0.467 0.813-0.347 1.267 0.253 1.053 0.6 3.707-0.227 5.6l-13.613-13.613c2.813-1.187 5.253-0.427 5.373-0.387 0.48 0.16 1.013 0.040 1.36-0.32l3.547-3.547c0.865-0.869 1.894-1.558 3.027-2.027s2.347-0.709 3.573-0.706h3.587v3.587z"></path>
    </symbol>
    <symbol id="solar_cup-outline" viewBox="0 0 32 32">
      <path d="M16 1.667c-2.437 0-4.452 0.215-6.003 0.476l-0.179 0.031c-1.347 0.225-2.467 0.413-3.343 1.491-0.56 0.692-0.743 1.44-0.784 2.273l-0.656 0.219c-0.617 0.205-1.16 0.387-1.588 0.587-0.464 0.216-0.889 0.493-1.215 0.945s-0.455 0.943-0.513 1.451c-0.053 0.471-0.053 1.040-0.053 1.692v0.193c0 0.536 0 1.009 0.040 1.405 0.043 0.428 0.137 0.845 0.373 1.248 0.239 0.404 0.556 0.689 0.911 0.935 0.327 0.227 0.74 0.457 1.209 0.717l3.52 1.956c0.72 1.415 1.708 2.676 3.067 3.587 1.183 0.795 2.603 1.293 4.284 1.425-0.045 0.118-0.069 0.243-0.071 0.369v2.333h-1.907c-0.539 0-1.062 0.187-1.479 0.529s-0.703 0.818-0.809 1.347l-0.292 1.457h-2.513c-0.265 0-0.52 0.105-0.707 0.293s-0.293 0.442-0.293 0.707c0 0.265 0.105 0.52 0.293 0.707s0.442 0.293 0.707 0.293h16c0.265 0 0.52-0.105 0.707-0.293s0.293-0.442 0.293-0.707c0-0.265-0.105-0.519-0.293-0.707s-0.442-0.293-0.707-0.293h-2.513l-0.292-1.457c-0.106-0.529-0.391-1.005-0.809-1.347s-0.94-0.529-1.479-0.529h-1.907v-2.333c-0.001-0.126-0.025-0.251-0.071-0.369 1.681-0.133 3.101-0.631 4.284-1.424 1.36-0.912 2.347-2.173 3.067-3.588l3.52-1.956c0.469-0.26 0.883-0.491 1.209-0.717 0.353-0.245 0.672-0.531 0.909-0.933 0.237-0.404 0.333-0.821 0.375-1.249 0.040-0.396 0.040-0.869 0.040-1.405v-0.193c0-0.651 0-1.221-0.053-1.692-0.059-0.508-0.187-1-0.513-1.451-0.325-0.452-0.751-0.729-1.213-0.947-0.431-0.2-0.972-0.38-1.589-0.585l-0.656-0.219c-0.040-0.835-0.223-1.581-0.784-2.273-0.875-1.079-1.995-1.267-3.341-1.491l-0.18-0.031c-1.984-0.326-3.992-0.485-6.003-0.476zM19.447 28.333h-6.893l0.213-1.065c0.015-0.075 0.056-0.143 0.115-0.192s0.134-0.076 0.211-0.076h5.813c0.077 0 0.152 0.027 0.211 0.076s0.1 0.117 0.115 0.192l0.213 1.065zM5.717 8.037l0.019-0.007c0.096 2.027 0.324 4.267 0.895 6.36l-1.421-0.788c-0.519-0.289-0.844-0.471-1.079-0.633-0.216-0.151-0.287-0.24-0.325-0.307-0.040-0.067-0.083-0.171-0.109-0.432-0.028-0.416-0.037-0.834-0.029-1.251v-0.097c0-0.719 0.001-1.173 0.040-1.517 0.037-0.317 0.096-0.436 0.149-0.508 0.052-0.073 0.145-0.167 0.435-0.301 0.315-0.147 0.747-0.291 1.427-0.519zM26.264 8.029l0.019 0.005c0.68 0.228 1.112 0.373 1.427 0.52 0.289 0.135 0.383 0.228 0.435 0.301 0.053 0.072 0.112 0.191 0.149 0.508 0.039 0.344 0.040 0.799 0.040 1.517v0.097c0 0.593-0.001 0.965-0.029 1.251-0.027 0.261-0.069 0.365-0.109 0.432-0.039 0.067-0.109 0.156-0.325 0.307-0.235 0.163-0.56 0.344-1.079 0.633l-1.42 0.788c0.569-2.093 0.799-4.333 0.893-6.36zM10.331 4.115c1.874-0.307 3.77-0.457 5.669-0.448 2.32 0 4.223 0.204 5.669 0.448 1.609 0.272 1.947 0.373 2.303 0.811 0.349 0.429 0.383 0.837 0.311 2.644-0.12 3.011-0.517 6.261-1.747 8.733-0.608 1.219-1.403 2.216-2.436 2.909-1.028 0.689-2.355 1.121-4.1 1.121s-3.071-0.432-4.099-1.121c-1.035-0.693-1.829-1.691-2.436-2.911-1.231-2.471-1.627-5.72-1.747-8.733-0.072-1.805-0.040-2.213 0.311-2.643 0.355-0.437 0.692-0.539 2.301-0.811z"></path>
    </symbol>
    <symbol id="target" viewBox="0 0 32 32">
      <path d="M16 0c0.601 0 1.193 0.033 1.776 0.098 0.209 0.023 0.411 0.087 0.595 0.188s0.347 0.238 0.478 0.402c0.131 0.164 0.229 0.352 0.288 0.554s0.077 0.413 0.054 0.622c-0.023 0.209-0.087 0.411-0.188 0.595s-0.238 0.346-0.402 0.478-0.352 0.229-0.554 0.288c-0.202 0.059-0.413 0.077-0.622 0.054-2.637-0.295-5.3 0.237-7.621 1.521s-4.186 3.259-5.336 5.65c-1.15 2.391-1.529 5.080-1.084 7.696s1.692 5.028 3.568 6.904c1.876 1.876 4.289 3.123 6.904 3.568s5.305 0.066 7.696-1.084c2.391-1.15 4.365-3.015 5.65-5.336s1.816-4.985 1.521-7.621c-0.023-0.209-0.005-0.42 0.054-0.622s0.156-0.39 0.288-0.554c0.265-0.331 0.651-0.544 1.073-0.59s0.845 0.076 1.176 0.341c0.164 0.131 0.301 0.294 0.402 0.478s0.165 0.386 0.188 0.595c0.064 0.583 0.097 1.175 0.098 1.776 0 8.837-7.163 16-16 16s-16-7.163-16-16c0-8.837 7.163-16 16-16zM15.949 9.403c0.105 0.411 0.043 0.847-0.172 1.212s-0.568 0.63-0.978 0.736c-1.128 0.296-2.11 0.991-2.763 1.958s-0.932 2.137-0.785 3.294c0.147 1.157 0.71 2.221 1.584 2.993s1.999 1.2 3.165 1.204c1.065 0 2.099-0.353 2.941-1.005s1.443-1.565 1.709-2.595c0.113-0.403 0.38-0.745 0.743-0.953s0.793-0.267 1.197-0.162c0.405 0.105 0.753 0.364 0.969 0.722s0.284 0.787 0.188 1.194c-0.491 1.881-1.65 3.52-3.261 4.609s-3.563 1.555-5.492 1.31c-1.929-0.245-3.703-1.184-4.99-2.641s-2-3.334-2.005-5.278c-0-1.774 0.589-3.497 1.675-4.9s2.607-2.404 4.325-2.847c0.203-0.052 0.415-0.064 0.623-0.035s0.408 0.1 0.589 0.206 0.339 0.248 0.465 0.416c0.126 0.168 0.218 0.359 0.271 0.563zM26.406 0.203c0.292 0.121 0.542 0.326 0.717 0.589s0.27 0.572 0.27 0.888v2.928h2.926c0.316 0 0.626 0.094 0.889 0.27s0.468 0.426 0.589 0.718 0.153 0.614 0.091 0.924c-0.062 0.31-0.214 0.595-0.438 0.819l-5.659 5.653c-0.3 0.3-0.707 0.469-1.131 0.469h-3.861l-2.925 2.926c-0.3 0.3-0.707 0.469-1.132 0.469s-0.832-0.169-1.132-0.469c-0.3-0.3-0.469-0.707-0.469-1.132s0.169-0.832 0.469-1.132l2.926-2.923v-3.862c0-0.424 0.169-0.831 0.469-1.131l5.656-5.658c0.224-0.224 0.509-0.376 0.819-0.438s0.632-0.030 0.925 0.091zM24.194 5.541l-2.456 2.459v2.262h2.262l2.458-2.456h-0.664c-0.424 0-0.831-0.169-1.131-0.469s-0.469-0.707-0.469-1.131v-0.666z"></path>
    </symbol>
    <symbol id="playstore" viewBox="0 0 28 32">
      <path fill="#ea4335" style="fill: var(--color1, #ea4335)" d="M12.948 15.137l-12.83 13.925c0.001 0.003 0.001 0.006 0.002 0.009 0.394 1.512 1.744 2.625 3.346 2.625 0.641 0 1.242-0.177 1.758-0.488l0.041-0.025 14.441-8.521-6.759-7.524z"></path>
      <path fill="#fbbc04" style="fill: var(--color2, #fbbc04)" d="M25.928 12.765l-0.012-0.009-6.235-3.696-7.024 6.392 7.050 7.207 6.201-3.659c1.087-0.601 1.826-1.773 1.826-3.124 0-1.343-0.728-2.509-1.805-3.112z"></path>
      <path fill="#4285f4" style="fill: var(--color3, #4285f4)" d="M0.118 2.632c-0.077 0.291-0.118 0.596-0.118 0.912v24.607c0 0.315 0.041 0.621 0.119 0.911l13.27-13.569-13.271-12.86z"></path>
      <path fill="#34a853" style="fill: var(--color4, #34a853)" d="M13.043 15.848l6.64-6.789-14.425-8.552c-0.524-0.322-1.136-0.506-1.791-0.506-1.603 0-2.955 1.115-3.349 2.629 0 0.001-0.001 0.002-0.001 0.004l12.925 13.215z"></path>
    </symbol>
    <symbol id="google-play" viewBox="0 0 158 32">
      <path fill="#fff" style="fill: var(--color1, #fff)" d="M122.705 24.341h3.475v-23.491h-3.475v23.491zM154.003 9.311l-3.984 10.185h-0.119l-4.134-10.185h-3.743l6.199 14.235-3.532 7.919h3.622l9.555-22.153h-3.864zM134.297 21.672c-1.14 0-2.727-0.573-2.727-1.996 0-1.812 1.976-2.507 3.683-2.507 1.527 0 2.248 0.333 3.175 0.785-0.27 2.176-2.127 3.717-4.132 3.717zM134.716 8.798c-2.516 0-5.122 1.118-6.199 3.597l3.084 1.299c0.659-1.299 1.886-1.723 3.175-1.723 1.797 0 3.624 1.088 3.654 3.024v0.241c-0.629-0.363-1.976-0.906-3.624-0.906-3.324 0-6.709 1.843-6.709 5.288 0 3.144 2.727 5.17 5.78 5.17 2.337 0 3.626-1.058 4.434-2.298h0.119v1.813h3.353v-9.007c0-4.17-3.083-6.496-7.067-6.496zM113.241 12.171h-4.942v-8.052h4.942c2.598 0 4.073 2.17 4.073 4.025 0 1.821-1.475 4.027-4.073 4.027zM113.153 0.849h-8.326v23.491h3.472v-8.9h4.853c3.851 0 7.636-2.815 7.636-7.297s-3.786-7.295-7.636-7.295zM67.751 21.676c-2.4 0-4.41-2.028-4.41-4.813 0-2.815 2.009-4.875 4.41-4.875 2.371 0 4.229 2.060 4.229 4.875 0 2.785-1.858 4.813-4.229 4.813zM71.742 10.627h-0.121c-0.78-0.938-2.279-1.785-4.169-1.785-3.961 0-7.59 3.51-7.59 8.022 0 4.48 3.629 7.962 7.59 7.962 1.89 0 3.389-0.848 4.169-1.817h0.121v1.152c0 3.057-1.62 4.692-4.231 4.692-2.13 0-3.451-1.545-3.991-2.847l-3.030 1.272c0.87 2.12 3.181 4.722 7.020 4.722 4.080 0 7.531-2.422 7.531-8.325v-14.351h-3.3v1.302zM77.442 24.341h3.48v-23.493h-3.48v23.493zM86.050 16.591c-0.089-3.087 2.37-4.662 4.139-4.662 1.382 0 2.551 0.695 2.941 1.695l-7.080 2.967zM96.851 13.926c-0.659-1.785-2.67-5.085-6.78-5.085-4.080 0-7.469 3.238-7.469 7.992 0 4.48 3.359 7.992 7.858 7.992 3.632 0 5.732-2.24 6.602-3.542l-2.7-1.817c-0.899 1.332-2.13 2.21-3.902 2.21-1.769 0-3.029-0.817-3.839-2.42l10.59-4.422-0.359-0.908zM12.48 11.294v3.39h8.039c-0.24 1.907-0.87 3.3-1.829 4.268-1.171 1.182-3.002 2.484-6.21 2.484-4.952 0-8.821-4.027-8.821-9.022 0-4.997 3.87-9.022 8.821-9.022 2.67 0 4.62 1.060 6.059 2.422l2.371-2.392c-2.011-1.937-4.68-3.422-8.43-3.422-6.78 0-12.48 5.572-12.48 12.414s5.7 12.412 12.48 12.412c3.659 0 6.419-1.212 8.579-3.482 2.222-2.24 2.911-5.387 2.911-7.932 0-0.787-0.060-1.513-0.181-2.118h-11.309zM33.111 21.676c-2.4 0-4.471-1.998-4.471-4.843 0-2.877 2.071-4.844 4.471-4.844 2.398 0 4.469 1.967 4.469 4.844 0 2.845-2.071 4.843-4.469 4.843zM33.111 8.841c-4.382 0-7.951 3.36-7.951 7.992 0 4.602 3.57 7.992 7.951 7.992 4.38 0 7.95-3.39 7.95-7.992 0-4.632-3.57-7.992-7.95-7.992zM50.453 21.676c-2.4 0-4.471-1.998-4.471-4.843 0-2.877 2.071-4.844 4.471-4.844s4.469 1.967 4.469 4.844c0 2.845-2.069 4.843-4.469 4.843zM50.453 8.841c-4.38 0-7.95 3.36-7.95 7.992 0 4.602 3.57 7.992 7.95 7.992s7.95-3.39 7.95-7.992c0-4.632-3.57-7.992-7.95-7.992z"></path>
    </symbol>
    <symbol id="subtext" viewBox="0 0 187 32">
      <path fill="#fff" style="fill: var(--color1, #fff)" d="M30.117 16.765c0 4.16-1.234 7.474-3.702 9.942-2.773 2.94-6.42 4.41-10.941 4.41-4.326 0-7.987-1.498-10.982-4.493s-4.493-6.684-4.493-11.066c0-4.382 1.498-8.070 4.493-11.066s6.656-4.493 10.982-4.493c2.191 0 4.257 0.388 6.198 1.165s3.536 1.872 4.784 3.286l-2.746 2.746c-0.915-1.109-2.108-1.969-3.578-2.579-1.442-0.638-2.995-0.957-4.659-0.957-3.245 0-5.99 1.123-8.237 3.37-2.219 2.274-3.328 5.117-3.328 8.528s1.109 6.254 3.328 8.528c2.246 2.246 4.992 3.37 8.237 3.37 2.967 0 5.436-0.832 7.405-2.496s3.106-3.952 3.411-6.864h-10.816v-3.578h14.435c0.139 0.777 0.208 1.525 0.208 2.246zM52.156 0.666v3.661h-13.562v9.443h12.23v3.578h-12.23v9.443h13.562v3.661h-17.389v-29.786h17.389zM67.464 4.326v26.125h-3.827v-26.125h-8.32v-3.661h20.467v3.661h-8.32zM92.747 30.451h-3.827v-29.786h3.827v29.786zM108.902 4.326v26.125h-3.827v-26.125h-8.32v-3.661h20.467v3.661h-8.32zM158.707 15.558c0 4.41-1.47 8.098-4.41 11.066-2.967 2.995-6.6 4.493-10.899 4.493-4.326 0-7.959-1.498-10.899-4.493-2.94-2.968-4.41-6.656-4.41-11.066s1.47-8.098 4.41-11.066c2.94-2.995 6.573-4.493 10.899-4.493s7.96 1.511 10.899 4.534c2.94 2.967 4.41 6.642 4.41 11.024zM132 15.558c0 3.439 1.082 6.282 3.245 8.528 2.191 2.246 4.909 3.37 8.154 3.37s5.949-1.123 8.112-3.37c2.191-2.219 3.286-5.061 3.286-8.528s-1.095-6.309-3.286-8.528c-2.163-2.246-4.867-3.37-8.112-3.37s-5.963 1.123-8.154 3.37c-2.163 2.246-3.245 5.089-3.245 8.528zM167.051 30.451h-3.827v-29.786h4.659l14.477 23.171h0.166l-0.166-5.741v-17.43h3.827v29.786h-3.994l-15.142-24.294h-0.166l0.166 5.741v18.554z"></path>
    </symbol>
  </defs>
</svg>